# xmcd
#
# Track frame offsets:
#	150
#	12748
#	22173
#	40420
#	51483
#	62840
#	85075
#	98640
#	111008
#	123415
#	136875
#	157193
#	169473
#	182435
#	197270
#	209978
#	226855
#	237543
#	253010
#	265885
#	277900
#	288900
#	301988
#	306710
#	322925
#
# Disc length: 4442 seconds
#
# Revision: 2
# Processed by: cddbd v1.5.2PL0 Copyright (c) Steve Scherf et al.
# Submitted via: audiograbber 1.83.01
#
DISCID=75115819
DTITLE=Various Artist - 50 Soul Hits Vol. 4 CD 1-2
DYEAR=1900
DGENRE=Soul
TTITLE0=Fontella Bass - Rescue Me
TTITLE1=Sam Cooke - Wonderful World
TTITLE2=Wilson Pickett - Hey Jude
TTITLE3=Sam and Dave - You Don't Know What You Mean To Me
TTITLE4=Otis Redding - Security
TTITLE5=Howlin' Wolf - Moanin' At Midnight
TTITLE6=Leadbelly - The Gallis Pole
TTITLE7=The Dells - When I'm In Your Arms
TTITLE8=Glaadys Knight and The Pips - Love Me Again
TTITLE9=Howlin' Wolf - My Baby Walked Off
TTITLE10=Ray Charles - What'd I Say
TTITLE11=The Miracles - Shop Around
TTITLE12=Freda Payne - Bad Of Gold
TTITLE13=Harold Melvin and The Blue Notes - Satisfaction Guaranteed
TTITLE14=Bob and Earl - Harlem Shuffle
TTITLE15=Gladys Knight and The Pips - Best Thing That Ever Happened To Me
TTITLE16=Wilson Picket - I Found A Love
TTITLE17=George McCrae - Rock Your Baby
TTITLE18=Sam and Dave - You Got Me Hummin'
TTITLE19=Otis Redding - Shake
TTITLE20=Howlin' Wolf - Red Rooster
TTITLE21=Jackie Wilson - I Get The Sweetest Feeling
TTITLE22=James Brown - Hot Pants
TTITLE23=Harold Melvin and The Blue Notes - If You Don't Know Me By Now
TTITLE24=Dobie Gray - You Are So Beautiful
EXTD=
EXTT0=
EXTT1=
EXTT2=
EXTT3=
EXTT4=
EXTT5=
EXTT6=
EXTT7=
EXTT8=
EXTT9=
EXTT10=
EXTT11=
EXTT12=
EXTT13=
EXTT14=
EXTT15=
EXTT16=
EXTT17=
EXTT18=
EXTT19=
EXTT20=
EXTT21=
EXTT22=
EXTT23=
EXTT24=
PLAYORDER=
